# Blender 3.6.5
# www.blender.org
mtllib Beach_Ball.mtl
o Beach_Ball
v 0.000000 1.189052 -0.185410
v 0.000000 0.803828 -0.570634
v 0.000000 0.618418 -0.600000
v 0.000000 0.265747 -0.485410
v 0.000000 0.133008 -0.352671
v 0.000000 0.047784 -0.185410
v 0.092705 1.189052 -0.160570
v 0.176336 1.103828 -0.305422
v 0.242705 0.971089 -0.420378
v 0.285317 0.803828 -0.494184
v 0.300000 0.618418 -0.519615
v 0.285317 0.433008 -0.494183
v 0.242705 0.265747 -0.420377
v 0.176336 0.133008 -0.305422
v 0.092705 0.047784 -0.160570
v 0.160570 1.189052 -0.092705
v 0.305422 1.103828 -0.176336
v 0.420378 0.971089 -0.242705
v 0.494184 0.803828 -0.285317
v 0.519615 0.618418 -0.300000
v 0.494183 0.433008 -0.285317
v 0.420378 0.265747 -0.242705
v 0.305422 0.133008 -0.176335
v 0.160570 0.047784 -0.092705
v 0.185410 1.189052 -0.000000
v 0.352671 1.103828 -0.000000
v 0.485410 0.971089 0.000000
v 0.570634 0.803828 0.000000
v 0.600000 0.618418 0.000000
v 0.570634 0.433008 0.000000
v 0.485410 0.265747 0.000000
v 0.352671 0.133008 0.000000
v 0.185410 0.047784 0.000000
v 0.160570 1.189052 0.092705
v 0.305422 1.103828 0.176336
v 0.420378 0.971089 0.242705
v 0.494184 0.803828 0.285317
v 0.519615 0.618418 0.300000
v 0.494183 0.433008 0.285317
v 0.420378 0.265747 0.242705
v 0.305422 0.133008 0.176336
v 0.160570 0.047784 0.092705
v 0.092705 1.189052 0.160570
v 0.176336 1.103828 0.305422
v 0.242705 0.971089 0.420378
v 0.285317 0.803828 0.494184
v 0.300000 0.618418 0.519615
v 0.285317 0.433008 0.494184
v 0.242705 0.265747 0.420378
v 0.176336 0.133008 0.305422
v 0.092705 0.047784 0.160570
v -0.000000 1.218418 0.000000
v 0.000000 1.189052 0.185410
v -0.000000 1.103828 0.352671
v -0.000000 0.971089 0.485410
v -0.000000 0.803828 0.570634
v -0.000000 0.618418 0.600000
v -0.000000 0.433008 0.570634
v -0.000000 0.265747 0.485410
v -0.000000 0.133008 0.352671
v -0.000000 0.047784 0.185410
v -0.092705 1.189052 0.160570
v -0.176336 1.103828 0.305422
v -0.242705 0.971089 0.420378
v -0.285317 0.803828 0.494184
v -0.300000 0.618418 0.519615
v -0.285317 0.433008 0.494184
v -0.242705 0.265747 0.420378
v -0.176336 0.133008 0.305422
v -0.092705 0.047784 0.160570
v -0.160570 1.189052 0.092705
v -0.305422 1.103828 0.176335
v -0.420378 0.971089 0.242705
v -0.494184 0.803828 0.285317
v -0.519615 0.618418 0.300000
v -0.494183 0.433008 0.285317
v -0.420378 0.265747 0.242705
v -0.305422 0.133008 0.176336
v -0.160570 0.047784 0.092705
v -0.185410 1.189052 -0.000000
v -0.352671 1.103828 -0.000000
v -0.485410 0.971089 -0.000000
v -0.570634 0.803828 -0.000000
v -0.600000 0.618418 0.000000
v -0.570634 0.433008 -0.000000
v -0.485410 0.265747 0.000000
v -0.352671 0.133008 0.000000
v -0.185410 0.047784 0.000000
v -0.160570 1.189052 -0.092705
v -0.305422 1.103828 -0.176336
v -0.420378 0.971089 -0.242705
v -0.494183 0.803828 -0.285317
v -0.519615 0.618418 -0.300000
v -0.494183 0.433008 -0.285317
v -0.420378 0.265747 -0.242705
v -0.305422 0.133008 -0.176335
v -0.160570 0.047784 -0.092705
v -0.092705 1.189052 -0.160570
v -0.176336 1.103828 -0.305422
v -0.242705 0.971089 -0.420378
v -0.285317 0.803828 -0.494184
v -0.300000 0.618418 -0.519615
v -0.285317 0.433008 -0.494183
v -0.242705 0.265747 -0.420377
v -0.176336 0.133008 -0.305422
v -0.092705 0.047784 -0.160570
v 0.000000 1.103828 -0.352671
v 0.000000 0.971089 -0.485410
v 0.000000 0.433008 -0.570634
v 0.000000 0.018418 0.000000
vn 0.0419 0.9868 -0.1563
vn 0.1862 -0.6947 -0.6947
vn 0.2558 0.1512 -0.9548
vn 0.1208 0.8845 -0.4507
vn 0.1208 -0.8845 -0.4507
vn 0.2558 -0.1512 -0.9548
vn 0.1862 0.6947 -0.6947
vn 0.0419 -0.9868 -0.1563
vn 0.2322 -0.4416 -0.8666
vn 0.2322 0.4416 -0.8666
vn 0.5086 -0.6947 -0.5086
vn 0.6990 0.1512 -0.6990
vn 0.3299 0.8845 -0.3299
vn 0.3299 -0.8845 -0.3299
vn 0.6990 -0.1512 -0.6990
vn 0.5086 0.6947 -0.5086
vn 0.1144 -0.9868 -0.1144
vn 0.6344 -0.4416 -0.6344
vn 0.6344 0.4416 -0.6344
vn 0.1144 0.9868 -0.1144
vn 0.8666 0.4416 -0.2322
vn 0.1563 0.9868 -0.0419
vn 0.6947 -0.6947 -0.1862
vn 0.9548 0.1512 -0.2558
vn 0.4507 0.8845 -0.1208
vn 0.4507 -0.8845 -0.1208
vn 0.9548 -0.1512 -0.2558
vn 0.6947 0.6947 -0.1862
vn 0.1563 -0.9868 -0.0419
vn 0.8666 -0.4416 -0.2322
vn 0.8666 -0.4416 0.2322
vn 0.8666 0.4416 0.2322
vn 0.1563 0.9868 0.0419
vn 0.6947 -0.6947 0.1862
vn 0.9548 0.1512 0.2558
vn 0.4507 0.8845 0.1208
vn 0.4507 -0.8845 0.1208
vn 0.9548 -0.1512 0.2558
vn 0.6947 0.6947 0.1862
vn 0.1563 -0.9868 0.0419
vn 0.5086 0.6947 0.5086
vn 0.1144 -0.9868 0.1144
vn 0.6344 -0.4416 0.6344
vn 0.6344 0.4416 0.6344
vn 0.1144 0.9868 0.1144
vn 0.5086 -0.6947 0.5086
vn 0.6990 0.1512 0.6990
vn 0.3299 0.8845 0.3299
vn 0.3299 -0.8845 0.3299
vn 0.6990 -0.1512 0.6990
vn 0.1208 -0.8845 0.4507
vn 0.2558 -0.1512 0.9548
vn 0.1862 0.6947 0.6947
vn 0.0419 -0.9868 0.1563
vn 0.2322 -0.4416 0.8666
vn 0.2322 0.4416 0.8666
vn 0.0419 0.9868 0.1563
vn 0.1862 -0.6947 0.6947
vn 0.2558 0.1512 0.9548
vn 0.1208 0.8845 0.4507
vn -0.2558 0.1512 0.9548
vn -0.1208 0.8845 0.4507
vn -0.1208 -0.8845 0.4507
vn -0.2558 -0.1512 0.9548
vn -0.1862 0.6947 0.6947
vn -0.0419 -0.9868 0.1563
vn -0.2322 -0.4416 0.8667
vn -0.2322 -0.4416 0.8666
vn -0.2322 0.4416 0.8666
vn -0.0419 0.9868 0.1563
vn -0.1862 -0.6947 0.6947
vn -0.1144 0.9868 0.1144
vn -0.5086 -0.6947 0.5086
vn -0.6990 0.1512 0.6990
vn -0.3299 0.8845 0.3299
vn -0.3299 -0.8845 0.3299
vn -0.6990 -0.1512 0.6990
vn -0.5086 0.6947 0.5086
vn -0.1144 -0.9868 0.1144
vn -0.6344 -0.4416 0.6344
vn -0.6344 0.4416 0.6344
vn -0.8666 0.4416 0.2322
vn -0.8667 0.4416 0.2322
vn -0.1563 0.9868 0.0419
vn -0.6947 -0.6947 0.1862
vn -0.9548 0.1512 0.2558
vn -0.4507 0.8845 0.1208
vn -0.4507 -0.8845 0.1208
vn -0.9548 -0.1512 0.2558
vn -0.6947 0.6947 0.1862
vn -0.1563 -0.9868 0.0419
vn -0.8667 -0.4416 0.2322
vn -0.1563 -0.9868 -0.0419
vn -0.8666 -0.4416 -0.2322
vn -0.8666 0.4416 -0.2322
vn -0.1563 0.9868 -0.0419
vn -0.6947 -0.6947 -0.1862
vn -0.9548 0.1512 -0.2558
vn -0.4507 0.8845 -0.1208
vn -0.4507 -0.8845 -0.1208
vn -0.9548 -0.1512 -0.2558
vn -0.6947 0.6947 -0.1862
vn -0.6990 -0.1512 -0.6990
vn -0.5086 0.6947 -0.5086
vn -0.1144 -0.9868 -0.1144
vn -0.6344 -0.4416 -0.6344
vn -0.6344 0.4416 -0.6344
vn -0.1144 0.9868 -0.1144
vn -0.5086 -0.6947 -0.5086
vn -0.6990 0.1512 -0.6990
vn -0.3299 0.8845 -0.3299
vn -0.3299 -0.8845 -0.3299
vn -0.1208 0.8845 -0.4507
vn -0.1208 -0.8845 -0.4507
vn -0.2558 -0.1512 -0.9548
vn -0.1862 0.6947 -0.6947
vn -0.0419 -0.9868 -0.1563
vn -0.2322 -0.4416 -0.8666
vn -0.2322 0.4416 -0.8666
vn -0.0419 0.9868 -0.1563
vn -0.1862 -0.6947 -0.6947
vn -0.2558 0.1512 -0.9548
vn -0.2322 -0.4416 -0.8667
vt 0.750000 0.900000
vt 0.708333 1.000000
vt 0.666667 0.900000
vt 0.750000 0.300000
vt 0.666667 0.200000
vt 0.750000 0.200000
vt 0.750000 0.600000
vt 0.666667 0.500000
vt 0.750000 0.500000
vt 0.750000 0.800000
vt 0.666667 0.800000
vt 0.666667 0.100000
vt 0.750000 0.100000
vt 0.750000 0.400000
vt 0.666667 0.400000
vt 0.750000 0.700000
vt 0.666667 0.700000
vt 0.708333 0.000000
vt 0.666667 0.300000
vt 0.666667 0.600000
vt 0.583333 0.200000
vt 0.583333 0.500000
vt 0.583333 0.900000
vt 0.583333 0.800000
vt 0.583333 0.100000
vt 0.583333 0.400000
vt 0.583333 0.700000
vt 0.625000 0.000000
vt 0.583333 0.300000
vt 0.583333 0.600000
vt 0.625000 1.000000
vt 0.500000 0.600000
vt 0.541667 1.000000
vt 0.500000 0.900000
vt 0.500000 0.200000
vt 0.500000 0.500000
vt 0.500000 0.800000
vt 0.500000 0.100000
vt 0.500000 0.400000
vt 0.500000 0.700000
vt 0.541667 0.000000
vt 0.500000 0.300000
vt 0.416667 0.300000
vt 0.416667 0.600000
vt 0.458333 1.000000
vt 0.416667 0.900000
vt 0.416667 0.200000
vt 0.416667 0.500000
vt 0.416667 0.800000
vt 0.416667 0.100000
vt 0.416667 0.400000
vt 0.416667 0.700000
vt 0.458333 0.000000
vt 0.333333 0.700000
vt 0.375000 0.000000
vt 0.333333 0.100000
vt 0.333333 0.300000
vt 0.333333 0.600000
vt 0.375000 1.000000
vt 0.333333 0.900000
vt 0.333333 0.200000
vt 0.333333 0.500000
vt 0.333333 0.800000
vt 0.333333 0.400000
vt 0.250000 0.100000
vt 0.250000 0.400000
vt 0.250000 0.700000
vt 0.291667 0.000000
vt 0.250000 0.300000
vt 0.250000 0.600000
vt 0.291667 1.000000
vt 0.250000 0.900000
vt 0.250000 0.200000
vt 0.250000 0.500000
vt 0.250000 0.800000
vt 0.166667 0.500000
vt 0.166667 0.900000
vt 0.166667 0.800000
vt 0.166667 0.100000
vt 0.166667 0.400000
vt 0.166667 0.700000
vt 0.208333 0.000000
vt 0.166667 0.300000
vt 0.166667 0.600000
vt 0.208333 1.000000
vt 0.166667 0.200000
vt 0.125000 1.000000
vt 0.083333 0.900000
vt 0.083333 0.200000
vt 0.083333 0.500000
vt 0.083333 0.800000
vt 0.083333 0.100000
vt 0.083333 0.400000
vt 0.083333 0.700000
vt 0.125000 0.000000
vt 0.083333 0.300000
vt 0.083333 0.600000
vt 0.000000 0.600000
vt 0.041667 1.000000
vt 0.000000 0.900000
vt 0.000000 0.200000
vt 0.000000 0.500000
vt 0.000000 0.800000
vt 0.000000 0.100000
vt 0.000000 0.400000
vt 0.000000 0.700000
vt 0.041667 0.000000
vt 0.000000 0.300000
vt 0.958333 0.000000
vt 1.000000 0.100000
vt 0.916667 0.100000
vt 1.000000 0.400000
vt 0.916667 0.300000
vt 1.000000 0.300000
vt 1.000000 0.700000
vt 0.916667 0.600000
vt 1.000000 0.600000
vt 1.000000 0.900000
vt 0.958333 1.000000
vt 0.916667 0.900000
vt 1.000000 0.200000
vt 0.916667 0.200000
vt 0.916667 0.500000
vt 1.000000 0.500000
vt 1.000000 0.800000
vt 0.916667 0.800000
vt 0.916667 0.400000
vt 0.916667 0.700000
vt 0.833333 0.400000
vt 0.833333 0.700000
vt 0.875000 0.000000
vt 0.833333 0.100000
vt 0.833333 0.300000
vt 0.833333 0.600000
vt 0.875000 1.000000
vt 0.833333 0.900000
vt 0.833333 0.200000
vt 0.833333 0.500000
vt 0.833333 0.800000
vt 0.791667 0.000000
vt 0.791667 1.000000
s 1
usemtl BeachBall
f 1/1/1 52/2/1 7/3/1
f 4/4/2 14/5/2 5/6/2
f 2/7/3 11/8/3 3/9/3
f 107/10/4 7/3/4 8/11/4
f 5/6/5 15/12/5 6/13/5
f 109/14/6 11/8/6 12/15/6
f 108/16/7 8/11/7 9/17/7
f 110/18/8 6/13/8 15/12/8
f 109/14/9 13/19/9 4/4/9
f 108/16/10 10/20/10 2/7/10
f 13/19/11 23/21/11 14/5/11
f 10/20/12 20/22/12 11/8/12
f 8/11/13 16/23/13 17/24/13
f 15/12/14 23/21/14 24/25/14
f 12/15/15 20/22/15 21/26/15
f 8/11/16 18/27/16 9/17/16
f 110/28/17 15/12/17 24/25/17
f 13/19/18 21/26/18 22/29/18
f 9/17/19 19/30/19 10/20/19
f 7/3/20 52/31/20 16/23/20
f 18/27/21 28/32/21 19/30/21
f 16/23/22 52/33/22 25/34/22
f 22/29/23 32/35/23 23/21/23
f 19/30/24 29/36/24 20/22/24
f 17/24/25 25/34/25 26/37/25
f 24/25/26 32/35/26 33/38/26
f 20/22/27 30/39/27 21/26/27
f 17/24/28 27/40/28 18/27/28
f 110/41/29 24/25/29 33/38/29
f 21/26/30 31/42/30 22/29/30
f 30/39/31 40/43/31 31/42/31
f 27/40/32 37/44/32 28/32/32
f 25/34/33 52/45/33 34/46/33
f 31/42/34 41/47/34 32/35/34
f 29/36/35 37/44/35 38/48/35
f 26/37/36 34/46/36 35/49/36
f 33/38/37 41/47/37 42/50/37
f 29/36/38 39/51/38 30/39/38
f 26/37/39 36/52/39 27/40/39
f 110/53/40 33/38/40 42/50/40
f 35/49/41 45/54/41 36/52/41
f 110/55/42 42/50/42 51/56/42
f 39/51/43 49/57/43 40/43/43
f 36/52/44 46/58/44 37/44/44
f 34/46/45 52/59/45 43/60/45
f 40/43/46 50/61/46 41/47/46
f 37/44/47 47/62/47 38/48/47
f 35/49/48 43/60/48 44/63/48
f 41/47/49 51/56/49 42/50/49
f 38/48/50 48/64/50 39/51/50
f 50/61/51 61/65/51 51/56/51
f 47/62/52 58/66/52 48/64/52
f 44/63/53 55/67/53 45/54/53
f 110/68/54 51/56/54 61/65/54
f 48/64/55 59/69/55 49/57/55
f 46/58/56 55/67/56 56/70/56
f 43/60/57 52/71/57 53/72/57
f 49/57/58 60/73/58 50/61/58
f 46/58/59 57/74/59 47/62/59
f 44/63/60 53/72/60 54/75/60
f 56/70/61 66/76/61 57/74/61
f 54/75/62 62/77/62 63/78/62
f 60/73/63 70/79/63 61/65/63
f 57/74/64 67/80/64 58/66/64
f 54/75/65 64/81/65 55/67/65
f 110/82/66 61/65/66 70/79/66
f 58/66/67 68/83/68 59/69/67
f 55/67/69 65/84/69 56/70/69
f 53/72/70 52/85/70 62/77/70
f 59/69/71 69/86/71 60/73/71
f 62/77/72 52/87/72 71/88/72
f 68/83/73 78/89/73 69/86/73
f 65/84/74 75/90/74 66/76/74
f 63/78/75 71/88/75 72/91/75
f 69/86/76 79/92/76 70/79/76
f 67/80/77 75/90/77 76/93/77
f 63/78/78 73/94/78 64/81/78
f 110/95/79 70/79/79 79/92/79
f 67/80/80 77/96/80 68/83/80
f 65/84/81 73/94/81 74/97/81
f 73/94/82 83/98/83 74/97/82
f 71/88/84 52/99/84 80/100/84
f 77/96/85 87/101/85 78/89/85
f 74/97/86 84/102/86 75/90/86
f 72/91/87 80/100/87 81/103/87
f 79/92/88 87/101/88 88/104/88
f 75/90/89 85/105/89 76/93/89
f 72/91/90 82/106/90 73/94/90
f 110/107/91 79/92/91 88/104/91
f 76/93/92 86/108/92 77/96/92
f 110/109/93 88/110/93 97/111/93
f 85/112/94 95/113/94 86/114/94
f 82/115/95 92/116/95 83/117/95
f 80/118/96 52/119/96 89/120/96
f 87/121/97 95/113/97 96/122/97
f 83/117/98 93/123/98 84/124/98
f 81/125/99 89/120/99 90/126/99
f 87/121/100 97/111/100 88/110/100
f 85/112/101 93/123/101 94/127/101
f 81/125/102 91/128/102 82/115/102
f 93/123/103 103/129/103 94/127/103
f 90/126/104 100/130/104 91/128/104
f 110/131/105 97/111/105 106/132/105
f 94/127/106 104/133/106 95/113/106
f 91/128/107 101/134/107 92/116/107
f 89/120/108 52/135/108 98/136/108
f 95/113/109 105/137/109 96/122/109
f 92/116/110 102/138/110 93/123/110
f 90/126/111 98/136/111 99/139/111
f 96/122/112 106/132/112 97/111/112
f 99/139/113 1/1/113 107/10/113
f 105/137/114 6/13/114 106/132/114
f 102/138/115 109/14/115 103/129/115
f 99/139/116 108/16/116 100/130/116
f 110/140/117 106/132/117 6/13/117
f 103/129/118 4/4/118 104/133/118
f 100/130/119 2/7/119 101/134/119
f 98/136/120 52/141/120 1/1/120
f 104/133/121 5/6/121 105/137/121
f 101/134/122 3/9/122 102/138/122
f 4/4/2 13/19/2 14/5/2
f 2/7/3 10/20/3 11/8/3
f 107/10/4 1/1/4 7/3/4
f 5/6/5 14/5/5 15/12/5
f 109/14/6 3/9/6 11/8/6
f 108/16/7 107/10/7 8/11/7
f 109/14/9 12/15/9 13/19/9
f 108/16/10 9/17/10 10/20/10
f 13/19/11 22/29/11 23/21/11
f 10/20/12 19/30/12 20/22/12
f 8/11/13 7/3/13 16/23/13
f 15/12/14 14/5/14 23/21/14
f 12/15/15 11/8/15 20/22/15
f 8/11/16 17/24/16 18/27/16
f 13/19/18 12/15/18 21/26/18
f 9/17/19 18/27/19 19/30/19
f 18/27/21 27/40/21 28/32/21
f 22/29/23 31/42/23 32/35/23
f 19/30/24 28/32/24 29/36/24
f 17/24/25 16/23/25 25/34/25
f 24/25/26 23/21/26 32/35/26
f 20/22/27 29/36/27 30/39/27
f 17/24/28 26/37/28 27/40/28
f 21/26/30 30/39/30 31/42/30
f 30/39/31 39/51/31 40/43/31
f 27/40/32 36/52/32 37/44/32
f 31/42/34 40/43/34 41/47/34
f 29/36/35 28/32/35 37/44/35
f 26/37/36 25/34/36 34/46/36
f 33/38/37 32/35/37 41/47/37
f 29/36/38 38/48/38 39/51/38
f 26/37/39 35/49/39 36/52/39
f 35/49/41 44/63/41 45/54/41
f 39/51/43 48/64/43 49/57/43
f 36/52/44 45/54/44 46/58/44
f 40/43/46 49/57/46 50/61/46
f 37/44/47 46/58/47 47/62/47
f 35/49/48 34/46/48 43/60/48
f 41/47/49 50/61/49 51/56/49
f 38/48/50 47/62/50 48/64/50
f 50/61/51 60/73/51 61/65/51
f 47/62/52 57/74/52 58/66/52
f 44/63/53 54/75/53 55/67/53
f 48/64/55 58/66/55 59/69/55
f 46/58/56 45/54/56 55/67/56
f 49/57/58 59/69/58 60/73/58
f 46/58/59 56/70/59 57/74/59
f 44/63/60 43/60/60 53/72/60
f 56/70/61 65/84/61 66/76/61
f 54/75/62 53/72/62 62/77/62
f 60/73/63 69/86/63 70/79/63
f 57/74/64 66/76/64 67/80/64
f 54/75/65 63/78/65 64/81/65
f 58/66/67 67/80/67 68/83/68
f 55/67/69 64/81/69 65/84/69
f 59/69/71 68/83/71 69/86/71
f 68/83/73 77/96/73 78/89/73
f 65/84/74 74/97/74 75/90/74
f 63/78/75 62/77/75 71/88/75
f 69/86/76 78/89/76 79/92/76
f 67/80/77 66/76/77 75/90/77
f 63/78/78 72/91/78 73/94/78
f 67/80/80 76/93/80 77/96/80
f 65/84/81 64/81/81 73/94/81
f 73/94/82 82/106/83 83/98/83
f 77/96/85 86/108/85 87/101/85
f 74/97/86 83/98/86 84/102/86
f 72/91/87 71/88/87 80/100/87
f 79/92/88 78/89/88 87/101/88
f 75/90/89 84/102/89 85/105/89
f 72/91/90 81/103/90 82/106/90
f 76/93/92 85/105/92 86/108/92
f 85/112/94 94/127/94 95/113/94
f 82/115/95 91/128/95 92/116/95
f 87/121/97 86/114/97 95/113/97
f 83/117/98 92/116/98 93/123/98
f 81/125/99 80/118/99 89/120/99
f 87/121/100 96/122/100 97/111/100
f 85/112/101 84/124/101 93/123/101
f 81/125/102 90/126/102 91/128/102
f 93/123/103 102/138/103 103/129/103
f 90/126/104 99/139/104 100/130/104
f 94/127/106 103/129/106 104/133/106
f 91/128/107 100/130/107 101/134/107
f 95/113/109 104/133/109 105/137/109
f 92/116/110 101/134/110 102/138/110
f 90/126/111 89/120/111 98/136/111
f 96/122/112 105/137/112 106/132/112
f 99/139/113 98/136/113 1/1/113
f 105/137/114 5/6/114 6/13/114
f 102/138/115 3/9/115 109/14/115
f 99/139/116 107/10/116 108/16/116
f 103/129/118 109/14/123 4/4/118
f 100/130/119 108/16/119 2/7/119
f 104/133/121 4/4/121 5/6/121
f 101/134/122 2/7/122 3/9/122
