# Blender 3.6.5
# www.blender.org
mtllib Cardboard_box.mtl
o CardboardBox_LP
v -1.133333 -0.004125 0.916667
v 1.133333 -0.004125 0.916667
v -1.133333 1.162542 0.916667
v 1.133333 1.162542 0.916667
v -1.133333 1.162542 -0.916667
v 1.133333 1.162542 -0.916667
v -1.133333 -0.004125 -0.916667
v 1.133333 -0.004125 -0.916667
vn -0.0000 -0.0000 1.0000
vn -0.0000 1.0000 -0.0000
vn -0.0000 -0.0000 -1.0000
vn -0.0000 -1.0000 -0.0000
vn 1.0000 -0.0000 -0.0000
vn -1.0000 -0.0000 -0.0000
vt 0.351404 0.680517
vt 0.659287 0.515480
vt 0.661960 0.675325
vt 0.348732 0.520673
vt 0.655087 0.264296
vt 0.344532 0.269488
vt 0.652415 0.104451
vt 0.355604 0.931702
vt 0.666159 0.926510
vt 0.184687 0.272161
vt 0.188887 0.523345
vt 0.819132 0.512808
vt 0.814932 0.261623
vt 0.341859 0.109643
s 1
usemtl lambert1.001
f 2/1/1 3/2/1 1/3/1
f 4/4/2 5/5/2 3/2/2
f 6/6/3 7/7/3 5/5/3
f 8/8/4 1/3/4 7/9/4
f 8/10/5 4/4/5 2/11/5
f 1/12/6 5/5/6 7/13/6
f 2/1/1 4/4/1 3/2/1
f 4/4/2 6/6/2 5/5/2
f 6/6/3 8/14/3 7/7/3
f 8/8/4 2/1/4 1/3/4
f 8/10/5 6/6/5 4/4/5
f 1/12/6 3/2/6 5/5/6
