# Blender 3.6.5
# www.blender.org
mtllib Stool.mtl
o stool
v 0.629081 2.623033 0.204401
v 0.535128 2.623033 0.388793
v 0.535128 2.534068 0.388793
v 0.388793 2.623033 0.535128
v 0.204401 2.623033 0.629080
v 0.000000 2.623033 0.661454
v -0.204401 2.623033 0.629080
v -0.204401 2.534068 0.629080
v -0.388793 2.623033 0.535128
v -0.388793 2.534068 0.535128
v -0.535128 2.534069 0.388793
v -0.535128 2.623033 0.388793
v -0.629081 2.623033 0.204401
v -0.629081 2.534068 0.204401
v -0.661454 2.623033 -0.000000
v -0.629081 2.623033 -0.204401
v -0.535128 2.623033 -0.388793
v -0.388793 2.623033 -0.535128
v -0.204401 2.623033 -0.629081
v -0.204401 2.534068 -0.629081
v 0.000000 2.623033 -0.661454
v 0.204401 2.623033 -0.629081
v 0.204401 2.534068 -0.629081
v 0.388793 2.623033 -0.535128
v 0.535128 2.623033 -0.388793
v 0.388793 2.534069 -0.535128
v 0.535128 2.534068 -0.388793
v 0.629080 2.623033 -0.204401
v 0.629080 2.534068 -0.204401
v 0.661454 2.623033 -0.000000
v 0.661454 2.534068 -0.000000
v 0.517137 2.645272 0.375722
v 0.607931 2.645272 0.197529
v 0.000000 2.645272 -0.000000
v 0.375722 2.645272 0.517137
v 0.197529 2.645272 0.607930
v 0.000000 2.645272 0.639216
v -0.197529 2.645272 0.607930
v -0.375722 2.645272 0.517137
v -0.517137 2.645272 0.375722
v -0.607931 2.645272 0.197528
v -0.639216 2.645272 -0.000000
v -0.607931 2.645272 -0.197529
v -0.517137 2.645272 -0.375722
v -0.375722 2.645272 -0.517137
v -0.197529 2.645272 -0.607931
v 0.000000 2.645272 -0.639216
v 0.197529 2.645272 -0.607931
v 0.375722 2.645272 -0.517137
v 0.517136 2.645272 -0.375722
v 0.607930 2.645272 -0.197529
v 0.639216 2.645272 -0.000000
v 0.629081 2.534068 0.204401
v 0.000000 2.534068 -0.000000
v 0.388793 2.534068 0.535128
v 0.204401 2.534068 0.629080
v 0.000000 2.534068 0.661454
v -0.661454 2.534068 -0.000000
v -0.629081 2.534068 -0.204401
v -0.535128 2.534068 -0.388793
v -0.388793 2.534069 -0.535128
v 0.000000 2.534068 -0.661454
v -0.028507 2.547168 0.445043
v -0.072659 2.547168 0.489195
v -0.461818 2.360730 0.011733
v -0.505969 2.360730 0.055885
v -0.461818 2.547168 0.011733
v -0.505969 2.547168 0.055885
v -0.072659 2.360730 0.489195
v -0.028507 2.360730 0.445043
v -0.359250 2.578054 -0.084494
v -0.528237 2.578054 -0.084494
v -0.743763 0.006701 -0.084493
v -0.912750 0.006701 -0.084493
v -0.528237 2.578054 0.084493
v -0.912750 0.006701 0.084493
v -0.743763 0.006701 0.084493
v -0.359250 2.578054 0.084493
v -0.587815 1.856550 0.071843
v -0.023987 1.856550 0.536675
v -0.073485 1.856550 0.586173
v -0.538317 1.786550 0.022346
v -0.587815 1.786550 0.071843
v -0.538317 1.856550 0.022346
v -0.073485 1.786550 0.586173
v -0.023987 1.786550 0.536675
v 0.023401 0.992020 0.713343
v 0.023401 0.922020 0.713343
v -0.749825 0.922020 0.039113
v -0.749825 0.992020 0.039113
v -0.026096 0.992020 0.762841
v -0.026096 0.922020 0.762841
v -0.700327 0.922020 -0.010385
v -0.700327 0.992020 -0.010385
v 0.055885 2.547168 0.505969
v 0.445044 2.547168 0.028507
v 0.489195 2.360730 0.072659
v 0.445044 2.360730 0.028507
v 0.011733 2.360730 0.461818
v 0.055885 2.360730 0.505969
v 0.011733 2.547168 0.461818
v 0.489195 2.547168 0.072659
v -0.084493 2.578054 0.359250
v 0.084493 2.578054 0.359250
v 0.084493 0.006701 0.743763
v 0.084493 0.006701 0.912750
v -0.084493 0.006701 0.912750
v -0.084493 0.006701 0.743763
v -0.084493 2.578054 0.528237
v 0.084493 2.578054 0.528237
v 0.536676 1.856550 0.023987
v 0.022346 1.786550 0.538317
v 0.071843 1.856550 0.587815
v 0.071843 1.786550 0.587815
v 0.586173 1.856550 0.073485
v 0.586173 1.786550 0.073485
v 0.022346 1.856550 0.538317
v 0.536676 1.786550 0.023987
v 0.039113 0.992020 0.749824
v 0.713343 0.992020 -0.023401
v 0.713343 0.922020 -0.023401
v 0.762841 0.922020 0.026096
v 0.039113 0.922020 0.749824
v 0.762841 0.992020 0.026096
v -0.010385 0.922020 0.700327
v -0.010385 0.992020 0.700327
v 0.028507 2.360730 -0.445044
v 0.072659 2.360730 -0.489195
v 0.461818 2.360730 -0.011733
v 0.505969 2.360730 -0.055885
v 0.505969 2.547168 -0.055885
v 0.072659 2.547168 -0.489195
v 0.461818 2.547168 -0.011733
v 0.028507 2.547168 -0.445044
v 0.359250 2.578054 -0.084494
v 0.528237 2.578054 -0.084494
v 0.912750 0.006701 -0.084493
v 0.743763 0.006701 0.084493
v 0.912750 0.006701 0.084493
v 0.528237 2.578054 0.084493
v 0.359250 2.578054 0.084493
v 0.743763 0.006701 -0.084493
v 0.023987 1.856550 -0.536676
v 0.023987 1.786550 -0.536676
v 0.073485 1.786550 -0.586173
v 0.538317 1.786550 -0.022346
v 0.538317 1.856550 -0.022346
v 0.587815 1.856550 -0.071843
v 0.587815 1.786550 -0.071843
v 0.073485 1.856550 -0.586173
v -0.023401 0.992020 -0.713343
v 0.026096 0.992020 -0.762841
v -0.023401 0.922020 -0.713343
v 0.026096 0.922020 -0.762841
v 0.700327 0.922020 0.010385
v 0.749825 0.992020 -0.039113
v 0.749825 0.922020 -0.039113
v 0.700327 0.992020 0.010385
v -0.445044 2.547168 -0.028507
v -0.489195 2.360730 -0.072659
v -0.011733 2.360730 -0.461818
v -0.011733 2.547168 -0.461818
v -0.055885 2.547168 -0.505969
v -0.055885 2.360730 -0.505969
v -0.489195 2.547168 -0.072659
v -0.445044 2.360730 -0.028507
v 0.084493 2.578054 -0.359250
v -0.084493 0.006701 -0.743763
v -0.084493 0.006701 -0.912750
v 0.084493 0.006701 -0.912750
v 0.084493 2.578054 -0.528237
v 0.084493 0.006701 -0.743763
v -0.084493 2.578054 -0.528237
v -0.084493 2.578054 -0.359250
v -0.536676 1.856550 -0.023987
v -0.586173 1.856550 -0.073485
v -0.536676 1.786550 -0.023987
v -0.022346 1.786550 -0.538317
v -0.071843 1.786550 -0.587815
v -0.071843 1.856550 -0.587815
v -0.586173 1.786550 -0.073485
v -0.022346 1.856550 -0.538317
v -0.713343 0.992020 0.023401
v -0.713343 0.922020 0.023401
v -0.762841 0.922020 -0.026096
v 0.010385 0.922020 -0.700327
v -0.039113 0.992020 -0.749825
v -0.039113 0.922020 -0.749825
v -0.762841 0.992020 -0.026096
v 0.010385 0.992020 -0.700327
vn -0.0000 1.0000 -0.0000
vn -0.6725 0.7071 0.2185
vn -0.7071 0.7071 -0.0000
vn -0.5721 0.7071 0.4156
vn -0.9511 -0.0000 0.3090
vn -0.8090 -0.0000 0.5878
vn -1.0000 -0.0000 -0.0000
vn -0.4156 0.7071 0.5721
vn -0.2185 0.7071 0.6725
vn -0.6725 0.7071 -0.2185
vn -0.9511 -0.0000 -0.3090
vn 0.5721 0.7071 0.4156
vn 0.6725 0.7071 0.2185
vn 0.4156 0.7071 0.5721
vn 0.2185 0.7071 0.6725
vn -0.0000 0.7071 0.7071
vn -0.5878 -0.0000 0.8090
vn -0.3090 -0.0000 0.9511
vn -0.0000 -0.0000 1.0000
vn 0.3090 -0.0000 0.9511
vn 0.5878 -0.0000 0.8090
vn 0.8090 -0.0000 0.5878
vn 0.9511 -0.0000 0.3090
vn 1.0000 -0.0000 -0.0000
vn 0.9511 -0.0000 -0.3090
vn 0.8090 -0.0000 -0.5878
vn 0.6725 0.7071 -0.2185
vn 0.5721 0.7071 -0.4156
vn 0.7071 0.7071 -0.0000
vn 0.5878 -0.0000 -0.8090
vn 0.4156 0.7071 -0.5721
vn -0.0000 0.7071 -0.7071
vn -0.2185 0.7071 -0.6725
vn 0.2185 0.7071 -0.6725
vn -0.0000 -0.0000 -1.0000
vn -0.3090 -0.0000 -0.9511
vn 0.3090 -0.0000 -0.9511
vn -0.4156 0.7071 -0.5721
vn -0.5878 -0.0000 -0.8090
vn -0.5721 0.7071 -0.4156
vn -0.8090 -0.0000 -0.5878
vn -0.0000 -1.0000 -0.0000
vn 0.7071 -0.0000 0.7071
vn -0.7071 -0.0000 -0.7071
vn -0.7071 -0.0000 0.7071
vn 0.7071 -0.0000 -0.7071
vn -0.9890 0.1479 -0.0000
vn 0.9890 -0.1479 -0.0000
vn -0.0000 0.1479 0.9890
vn -0.0000 -0.1479 -0.9890
vn 0.9890 0.1479 -0.0000
vn -0.9890 -0.1479 -0.0000
vn -0.0000 0.1479 -0.9890
vn -0.0000 -0.1479 0.9890
vt 0.483643 0.279297
vt 0.474609 0.366211
vt 0.474609 0.279297
vt 0.622559 0.559082
vt 0.576660 0.580078
vt 0.616211 0.555908
vt 0.673828 0.541992
vt 0.668945 0.537354
vt 0.597168 0.545654
vt 0.552246 0.572998
vt 0.733887 0.535156
vt 0.796387 0.532715
vt 0.793945 0.537354
vt 0.733398 0.530518
vt 0.750488 0.633057
vt 0.584473 0.582520
vt 0.552734 0.609375
vt 0.525391 0.605957
vt 0.945313 0.655029
vt 0.919434 0.686279
vt 0.948730 0.623779
vt 0.933594 0.593018
vt 0.897949 0.567383
vt 0.850586 0.548340
vt 0.955566 0.655518
vt 0.943359 0.590820
vt 0.958496 0.623291
vt 0.904785 0.563965
vt 0.854980 0.544189
vt 0.665527 0.522461
vt 0.670410 0.537109
vt 0.732422 0.516357
vt 0.802734 0.518799
vt 0.869141 0.531738
vt 0.924805 0.553955
vt 0.969727 0.584717
vt 0.987305 0.622314
vt 0.984863 0.659180
vt 0.927246 0.689697
vt 0.953613 0.697510
vt 0.884277 0.713379
vt 0.902832 0.724854
vt 0.829102 0.729980
vt 0.878418 0.709717
vt 0.825195 0.725586
vt 0.840820 0.742920
vt 0.766113 0.738281
vt 0.764648 0.732910
vt 0.647949 0.716797
vt 0.595215 0.700195
vt 0.602051 0.697021
vt 0.700684 0.733643
vt 0.642578 0.720947
vt 0.703125 0.729248
vt 0.764648 0.738281
vt 0.627930 0.732910
vt 0.692383 0.747070
vt 0.759766 0.752808
vt 0.558594 0.672363
vt 0.568848 0.670898
vt 0.574707 0.709717
vt 0.546875 0.640869
vt 0.556152 0.640625
vt 0.561523 0.610352
vt 0.519043 0.641113
vt 0.530273 0.674805
vt 0.835938 0.967621
vt 0.776855 0.975403
vt 0.750488 0.876892
vt 0.716797 0.974319
vt 0.659668 0.964539
vt 0.609375 0.946594
vt 0.575684 0.920593
vt 0.558105 0.891724
vt 0.558594 0.861816
vt 0.575684 0.833008
vt 0.609375 0.807007
vt 0.660156 0.789063
vt 0.716797 0.779175
vt 0.777344 0.777954
vt 0.838379 0.785400
vt 0.890137 0.803955
vt 0.928711 0.828613
vt 0.951660 0.858887
vt 0.951660 0.895142
vt 0.929199 0.925659
vt 0.890137 0.951294
vt 0.945313 0.452148
vt 0.984375 0.510498
vt 0.945313 0.510498
vt 0.561523 0.452148
vt 0.945313 0.432129
vt 0.561523 0.510498
vt 0.522461 0.452148
vt 0.945313 0.373535
vt 0.561523 0.432129
vt 0.561523 0.373535
vt 0.688965 0.906982
vt 0.807617 0.847412
vt 0.807617 0.906982
vt 0.265625 0.960876
vt 0.386230 0.024902
vt 0.386230 0.969955
vt 0.688965 0.847412
vt 0.143799 0.960876
vt 0.023148 0.024902
vt 0.143799 0.016113
vt 0.265625 0.016113
vt 0.508301 0.024902
vt 0.508301 0.969955
vt 0.783203 0.367188
vt 0.734375 0.112793
vt 0.783203 0.112793
vt 0.560059 0.711914
vt 0.517090 0.733398
vt 0.517090 0.711914
vt 0.831543 0.112793
vt 0.880371 0.367188
vt 0.831543 0.367188
vt 0.528320 0.543945
vt 0.571289 0.522217
vt 0.571289 0.543945
vt 0.929199 0.367188
vt 0.880371 0.112793
vt 0.929199 0.112793
vt 0.574219 0.367188
vt 0.524902 0.004883
vt 0.574219 0.004883
vt 0.566406 0.742920
vt 0.520020 0.766357
vt 0.520020 0.742920
vt 0.623047 0.004883
vt 0.672363 0.367188
vt 0.623047 0.367188
vt 0.592773 0.767700
vt 0.639160 0.744385
vt 0.639160 0.767700
vt 0.721680 0.367188
vt 0.672363 0.004883
vt 0.721680 0.004883
vt 0.483643 0.366211
vt 0.651855 0.525635
vt 0.774414 0.752563
vt 0.535645 0.681885
vt 0.984375 0.452148
vt 0.522461 0.510498
vt 0.023148 0.969955
vt 0.734375 0.367188
vt 0.560059 0.733398
vt 0.528320 0.522217
vt 0.524902 0.367188
vt 0.566406 0.766357
vt 0.592773 0.744385
s 1
usemtl stool
f 68/1/1 63/2/1 67/3/1
f 41/4/2 15/5/3 13/6/2
f 40/7/4 13/6/2 12/8/4
f 14/9/5 12/8/6 13/6/5
f 58/10/7 13/6/5 15/5/7
f 39/11/8 7/12/9 38/13/9
f 40/7/4 9/14/8 39/11/8
f 40/7/1 39/11/1 34/15/1
f 41/4/1 34/15/1 42/16/1
f 42/16/3 16/17/10 15/5/3
f 59/18/11 15/5/7 16/17/11
f 33/19/1 52/20/1 34/15/1
f 32/21/1 34/15/1 35/22/1
f 36/23/1 35/22/1 34/15/1
f 37/24/1 34/15/1 38/13/1
f 32/21/12 1/25/13 33/19/13
f 32/21/12 4/26/14 2/27/12
f 35/22/14 5/28/15 4/26/14
f 36/23/15 6/29/16 5/28/15
f 38/13/9 6/29/16 37/24/16
f 11/30/6 9/14/17 12/31/6
f 10/32/17 7/12/18 9/14/17
f 8/33/18 6/29/19 7/12/18
f 57/34/19 5/28/20 6/29/19
f 56/35/20 4/26/21 5/28/20
f 55/36/21 2/27/22 4/26/21
f 3/37/22 1/25/23 2/27/22
f 53/38/23 30/39/24 1/25/23
f 31/40/24 28/41/25 30/39/24
f 29/42/25 25/43/26 28/41/25
f 51/44/27 25/43/28 50/45/28
f 52/20/29 28/41/27 51/44/27
f 27/46/26 24/47/30 25/43/26
f 50/45/28 24/47/31 49/48/31
f 50/45/1 34/15/1 51/44/1
f 33/19/13 30/39/29 52/20/29
f 47/49/32 19/50/33 46/51/33
f 47/49/32 22/52/34 21/53/32
f 48/54/34 24/55/31 22/52/34
f 49/48/1 48/54/1 34/15/1
f 47/49/1 46/51/1 34/15/1
f 62/56/35 19/50/36 21/53/35
f 23/57/37 21/53/35 22/52/37
f 26/58/30 22/52/37 24/55/30
f 46/51/33 18/59/38 45/60/38
f 20/61/36 18/59/39 19/50/36
f 45/60/38 17/62/40 44/63/40
f 44/63/40 16/17/10 43/64/10
f 43/64/1 42/16/1 34/15/1
f 44/63/1 34/15/1 45/60/1
f 60/65/41 16/17/11 17/62/41
f 61/66/39 17/62/41 18/59/39
f 56/67/42 57/68/42 54/69/42
f 57/68/42 8/70/42 54/69/42
f 10/71/42 11/72/42 54/69/42
f 11/72/42 14/73/42 54/69/42
f 58/74/42 59/75/42 54/69/42
f 60/76/42 61/77/42 54/69/42
f 61/77/42 20/78/42 54/69/42
f 62/79/42 23/80/42 54/69/42
f 26/81/42 27/82/42 54/69/42
f 27/82/42 29/83/42 54/69/42
f 31/84/42 53/85/42 54/69/42
f 3/86/42 55/87/42 54/69/42
f 69/88/43 63/89/43 64/90/43
f 66/91/42 70/92/42 69/88/42
f 68/93/44 65/94/44 66/91/44
f 69/88/45 68/93/45 66/91/45
f 63/95/46 65/96/46 67/97/46
f 75/98/1 71/99/1 72/100/1
f 75/101/19 77/102/19 78/103/19
f 74/99/42 77/98/42 76/104/42
f 72/105/35 73/106/35 74/107/35
f 76/108/47 72/105/47 74/107/47
f 78/103/48 73/109/48 71/110/48
f 81/111/1 84/112/1 79/113/1
f 85/114/43 80/115/43 81/116/43
f 83/117/42 86/118/42 85/119/42
f 79/120/44 82/121/44 83/122/44
f 85/119/45 79/113/45 83/117/45
f 80/123/46 82/124/46 84/125/46
f 91/126/1 94/127/1 90/128/1
f 92/129/43 87/130/43 91/131/43
f 89/132/42 88/133/42 92/134/42
f 90/135/44 93/136/44 89/137/44
f 92/134/45 90/128/45 89/132/45
f 87/138/46 93/139/46 94/140/46
f 95/1/1 96/2/1 101/3/1
f 97/88/46 96/89/46 102/90/46
f 100/91/42 98/92/42 97/88/42
f 95/93/45 99/94/45 100/91/45
f 97/88/43 95/93/43 100/91/43
f 96/95/44 99/96/44 101/97/44
f 110/98/1 103/99/1 109/100/1
f 110/101/24 105/102/24 104/103/24
f 107/99/42 105/98/42 106/104/42
f 109/105/7 108/106/7 107/107/7
f 106/108/49 109/105/49 107/107/49
f 104/103/50 108/109/50 103/110/50
f 115/111/1 117/112/1 113/113/1
f 116/114/46 111/115/46 115/116/46
f 114/117/42 118/118/42 116/119/42
f 113/120/45 112/121/45 114/122/45
f 116/119/43 113/113/43 114/117/43
f 111/123/44 112/124/44 117/125/44
f 124/126/1 126/127/1 119/128/1
f 122/129/46 120/130/46 124/131/46
f 123/132/42 121/133/42 122/134/42
f 119/135/45 125/136/45 123/137/45
f 122/134/43 119/128/43 123/132/43
f 120/138/44 125/139/44 126/140/44
f 131/1/1 134/2/1 133/3/1
f 128/88/44 134/89/44 132/90/44
f 130/91/42 127/92/42 128/88/42
f 131/93/43 129/94/43 130/91/43
f 128/88/46 131/93/46 130/91/46
f 134/95/45 129/96/45 133/97/45
f 136/98/1 141/99/1 140/100/1
f 136/101/35 142/102/35 135/103/35
f 139/99/42 142/98/42 137/104/42
f 140/105/19 138/106/19 139/107/19
f 137/108/51 140/105/51 139/107/51
f 135/103/52 138/109/52 141/110/52
f 150/111/1 147/112/1 148/113/1
f 145/114/44 143/115/44 150/116/44
f 149/117/42 144/118/42 145/119/42
f 148/120/43 146/121/43 149/122/43
f 145/119/46 148/113/46 149/117/46
f 143/123/45 146/124/45 147/125/45
f 152/126/1 158/127/1 156/128/1
f 154/129/44 151/130/44 152/131/44
f 157/132/42 153/133/42 154/134/42
f 156/135/43 155/136/43 157/137/43
f 154/134/46 156/128/46 157/132/46
f 151/138/45 155/139/45 158/140/45
f 163/1/1 159/2/1 162/3/1
f 160/88/45 159/89/45 165/90/45
f 164/91/42 166/92/42 160/88/42
f 163/93/46 161/94/46 164/91/46
f 160/88/44 163/93/44 164/91/44
f 159/95/43 161/96/43 162/97/43
f 173/98/1 167/99/1 171/100/1
f 173/101/7 168/102/7 174/103/7
f 170/99/42 168/98/42 169/104/42
f 171/105/24 172/106/24 170/107/24
f 169/108/53 171/105/53 170/107/53
f 174/103/54 172/109/54 167/110/54
f 176/111/1 182/112/1 180/113/1
f 181/114/45 175/115/45 176/116/45
f 179/117/42 177/118/42 181/119/42
f 180/120/46 178/121/46 179/122/46
f 181/119/44 180/113/44 179/117/44
f 175/123/43 178/124/43 182/125/43
f 189/126/1 190/127/1 187/128/1
f 185/129/45 183/130/45 189/131/45
f 188/132/42 184/133/42 185/134/42
f 187/135/46 186/136/46 188/137/46
f 185/134/44 187/128/44 188/132/44
f 183/138/43 186/139/43 190/140/43
f 39/11/1 38/13/1 34/15/1
f 41/4/1 40/7/1 34/15/1
f 52/20/1 51/44/1 34/15/1
f 32/21/1 33/19/1 34/15/1
f 37/24/1 36/23/1 34/15/1
f 50/45/1 49/48/1 34/15/1
f 48/54/1 47/49/1 34/15/1
f 46/51/1 45/60/1 34/15/1
f 44/63/1 43/64/1 34/15/1
f 8/70/42 10/71/42 54/69/42
f 14/73/42 58/74/42 54/69/42
f 59/75/42 60/76/42 54/69/42
f 20/78/42 62/79/42 54/69/42
f 23/80/42 26/81/42 54/69/42
f 29/83/42 31/84/42 54/69/42
f 53/85/42 3/86/42 54/69/42
f 55/87/42 56/67/42 54/69/42
f 68/1/1 64/141/1 63/2/1
f 41/4/2 42/16/3 15/5/3
f 40/7/4 41/4/2 13/6/2
f 14/9/5 11/142/6 12/8/6
f 58/10/7 14/9/5 13/6/5
f 39/11/8 9/14/8 7/12/9
f 40/7/4 12/31/4 9/14/8
f 42/16/3 43/64/10 16/17/10
f 59/18/11 58/10/7 15/5/7
f 32/21/12 2/27/12 1/25/13
f 32/21/12 35/22/14 4/26/14
f 35/22/14 36/23/15 5/28/15
f 36/23/15 37/24/16 6/29/16
f 38/13/9 7/12/9 6/29/16
f 11/30/6 10/32/17 9/14/17
f 10/32/17 8/33/18 7/12/18
f 8/33/18 57/34/19 6/29/19
f 57/34/19 56/35/20 5/28/20
f 56/35/20 55/36/21 4/26/21
f 55/36/21 3/37/22 2/27/22
f 3/37/22 53/38/23 1/25/23
f 53/38/23 31/40/24 30/39/24
f 31/40/24 29/42/25 28/41/25
f 29/42/25 27/46/26 25/43/26
f 51/44/27 28/41/27 25/43/28
f 52/20/29 30/39/29 28/41/27
f 27/46/26 26/143/30 24/47/30
f 50/45/28 25/43/28 24/47/31
f 33/19/13 1/25/13 30/39/29
f 47/49/32 21/53/32 19/50/33
f 47/49/32 48/54/34 22/52/34
f 48/54/34 49/48/31 24/55/31
f 62/56/35 20/61/36 19/50/36
f 23/57/37 62/56/35 21/53/35
f 26/58/30 23/57/37 22/52/37
f 46/51/33 19/50/33 18/59/38
f 20/61/36 61/144/39 18/59/39
f 45/60/38 18/59/38 17/62/40
f 44/63/40 17/62/40 16/17/10
f 60/65/41 59/18/11 16/17/11
f 61/66/39 60/65/41 17/62/41
f 69/88/43 70/145/43 63/89/43
f 66/91/42 65/96/42 70/92/42
f 68/93/44 67/146/44 65/94/44
f 69/88/45 64/90/45 68/93/45
f 63/95/46 70/92/46 65/96/46
f 75/98/1 78/104/1 71/99/1
f 75/101/19 76/108/19 77/102/19
f 74/99/42 73/100/42 77/98/42
f 72/105/35 71/147/35 73/106/35
f 76/108/47 75/101/47 72/105/47
f 78/103/48 77/102/48 73/109/48
f 81/111/1 80/148/1 84/112/1
f 85/114/43 86/149/43 80/115/43
f 83/117/42 82/124/42 86/118/42
f 79/120/44 84/150/44 82/121/44
f 85/119/45 81/111/45 79/113/45
f 80/123/46 86/118/46 82/124/46
f 91/126/1 87/151/1 94/127/1
f 92/129/43 88/152/43 87/130/43
f 89/132/42 93/139/42 88/133/42
f 90/135/44 94/153/44 93/136/44
f 92/134/45 91/126/45 90/128/45
f 87/138/46 88/133/46 93/139/46
f 95/1/1 102/141/1 96/2/1
f 97/88/46 98/145/46 96/89/46
f 100/91/42 99/96/42 98/92/42
f 95/93/45 101/146/45 99/94/45
f 97/88/43 102/90/43 95/93/43
f 96/95/44 98/92/44 99/96/44
f 110/98/1 104/104/1 103/99/1
f 110/101/24 106/108/24 105/102/24
f 107/99/42 108/100/42 105/98/42
f 109/105/7 103/147/7 108/106/7
f 106/108/49 110/101/49 109/105/49
f 104/103/50 105/102/50 108/109/50
f 115/111/1 111/148/1 117/112/1
f 116/114/46 118/149/46 111/115/46
f 114/117/42 112/124/42 118/118/42
f 113/120/45 117/150/45 112/121/45
f 116/119/43 115/111/43 113/113/43
f 111/123/44 118/118/44 112/124/44
f 124/126/1 120/151/1 126/127/1
f 122/129/46 121/152/46 120/130/46
f 123/132/42 125/139/42 121/133/42
f 119/135/45 126/153/45 125/136/45
f 122/134/43 124/126/43 119/128/43
f 120/138/44 121/133/44 125/139/44
f 131/1/1 132/141/1 134/2/1
f 128/88/44 127/145/44 134/89/44
f 130/91/42 129/96/42 127/92/42
f 131/93/43 133/146/43 129/94/43
f 128/88/46 132/90/46 131/93/46
f 134/95/45 127/92/45 129/96/45
f 136/98/1 135/104/1 141/99/1
f 136/101/35 137/108/35 142/102/35
f 139/99/42 138/100/42 142/98/42
f 140/105/19 141/147/19 138/106/19
f 137/108/51 136/101/51 140/105/51
f 135/103/52 142/102/52 138/109/52
f 150/111/1 143/148/1 147/112/1
f 145/114/44 144/149/44 143/115/44
f 149/117/42 146/124/42 144/118/42
f 148/120/43 147/150/43 146/121/43
f 145/119/46 150/111/46 148/113/46
f 143/123/45 144/118/45 146/124/45
f 152/126/1 151/151/1 158/127/1
f 154/129/44 153/152/44 151/130/44
f 157/132/42 155/139/42 153/133/42
f 156/135/43 158/153/43 155/136/43
f 154/134/46 152/126/46 156/128/46
f 151/138/45 153/133/45 155/139/45
f 163/1/1 165/141/1 159/2/1
f 160/88/45 166/145/45 159/89/45
f 164/91/42 161/96/42 166/92/42
f 163/93/46 162/146/46 161/94/46
f 160/88/44 165/90/44 163/93/44
f 159/95/43 166/92/43 161/96/43
f 173/98/1 174/104/1 167/99/1
f 173/101/7 169/108/7 168/102/7
f 170/99/42 172/100/42 168/98/42
f 171/105/24 167/147/24 172/106/24
f 169/108/53 173/101/53 171/105/53
f 174/103/54 168/102/54 172/109/54
f 176/111/1 175/148/1 182/112/1
f 181/114/45 177/149/45 175/115/45
f 179/117/42 178/124/42 177/118/42
f 180/120/46 182/150/46 178/121/46
f 181/119/44 176/111/44 180/113/44
f 175/123/43 177/118/43 178/124/43
f 189/126/1 183/151/1 190/127/1
f 185/129/45 184/152/45 183/130/45
f 188/132/42 186/139/42 184/133/42
f 187/135/46 190/153/46 186/136/46
f 185/134/44 189/126/44 187/128/44
f 183/138/43 184/133/43 186/139/43
