# Blender 3.6.5
# www.blender.org
mtllib Suitcase.mtl
o Suitcase
v 1.404673 0.054223 -0.443632
v 1.404673 0.054223 0.394006
v 1.404673 1.634613 0.394005
v 1.109055 1.634613 -0.101644
v 0.928374 1.634613 -0.101644
v 0.928374 1.634613 0.010503
v 1.109055 1.634613 0.010503
v 0.261426 1.634613 -0.017562
v 0.261426 1.634613 0.070658
v 0.184265 1.634613 0.070701
v 0.184265 1.634613 -0.017562
v 0.184265 1.736695 0.070701
v 0.184265 1.736695 -0.017562
v 1.109055 1.664589 -0.101644
v 0.928374 1.664589 -0.101644
v 0.928374 1.664589 0.010503
v 1.109055 1.664589 0.010503
v 0.261426 1.816705 -0.017562
v 0.261426 1.816705 0.070658
v 0.184265 1.816705 0.070701
v 0.184265 1.816705 -0.017562
v 1.404673 1.503692 0.394005
v 1.404673 1.634613 0.248826
v 1.259670 1.634613 0.394005
v 1.404673 1.634613 -0.443632
v 1.259479 1.634613 -0.443632
v 1.404673 1.503339 -0.443632
v 1.404673 1.634613 -0.298620
v 1.257895 0.054223 -0.443632
v 1.404673 0.199737 -0.443632
v 1.404673 0.054223 -0.311620
v 1.404673 0.199716 0.394006
v 1.258912 0.054223 0.394006
v 1.404673 0.054223 0.262637
v -1.404673 0.054223 -0.443632
v -1.404673 0.054223 0.394006
v -1.404673 1.634613 0.394005
v 0.000000 1.634613 -0.443632
v 0.000000 0.054223 -0.443632
v 0.000000 1.634613 0.394005
v 0.000000 0.054223 0.394006
v -1.109055 1.634613 -0.101644
v -0.928374 1.634613 -0.101644
v -0.928374 1.634613 0.010503
v -1.109055 1.634613 0.010503
v -0.261426 1.634613 -0.017562
v -0.261426 1.634613 0.070658
v -0.184265 1.634613 0.070701
v -0.184265 1.634613 -0.017562
v -0.184265 1.736695 0.070701
v -0.184265 1.736695 -0.017562
v -1.109055 1.664589 -0.101644
v -0.928374 1.664589 -0.101644
v -0.928374 1.664589 0.010503
v -1.109055 1.664589 0.010503
v -0.261426 1.816705 -0.017562
v -0.261426 1.816705 0.070658
v -0.184265 1.816705 0.070701
v -0.184265 1.816705 -0.017562
v 0.000000 1.736695 0.070701
v 0.000000 1.736695 -0.017562
v 0.000000 1.816705 0.070701
v 0.000000 1.816705 -0.017562
v -1.404673 1.503692 0.394005
v -1.404673 1.634613 0.248826
v -1.259670 1.634613 0.394005
v -1.404673 1.634613 -0.443632
v -1.259479 1.634613 -0.443632
v -1.404673 1.503339 -0.443632
v -1.404673 1.634613 -0.298620
v -1.257895 0.054223 -0.443632
v -1.404673 0.199737 -0.443632
v -1.404673 0.054223 -0.311620
v -1.404673 0.199716 0.394006
v -1.258912 0.054223 0.394006
v -1.404673 0.054223 0.262637
vn -0.0000 -1.0000 -0.0000
vn -0.0000 -0.0000 1.0000
vn -0.0000 1.0000 -0.0000
vn -0.0000 -0.0000 -1.0000
vn -1.0000 -0.0000 -0.0000
vn 0.0005 -0.0000 1.0000
vn 1.0000 -0.0000 -0.0000
vn -0.0005 -0.0000 1.0000
vt 0.057678 0.883376
vt 0.178885 0.855671
vt 0.154649 0.888857
vt 0.013803 0.642904
vt 0.228327 0.247237
vt 0.253165 0.610127
vt 0.991566 0.666994
vt 0.800659 0.698394
vt 0.748543 0.698394
vt 0.229017 0.886414
vt 0.229017 0.874781
vt 0.251629 0.874781
vt 0.229017 0.828671
vt 0.229017 0.944134
vt 0.229017 0.932501
vt 0.251629 0.944134
vt 0.302445 0.685131
vt 0.268421 0.693424
vt 0.268421 0.685131
vt 0.260128 0.693424
vt 0.268421 0.766603
vt 0.260128 0.766603
vt 0.268421 0.774897
vt 0.302445 0.766603
vt 0.302445 0.774897
vt 0.310738 0.766603
vt 0.302445 0.693425
vt 0.310738 0.693425
vt 0.496957 0.666995
vt 0.748543 0.711542
vt 0.152378 0.753760
vt 0.175841 0.786596
vt 0.046118 0.758592
vt 0.765114 0.855981
vt 0.582584 0.906356
vt 0.698894 0.855981
vt 0.012929 0.995202
vt 0.036299 0.962369
vt 0.142689 0.967007
vt 0.991565 0.881647
vt 0.765114 0.825193
vt 0.698894 0.825193
vt 0.496957 0.881614
vt 0.905840 0.906356
vt 0.800634 0.711542
vt 0.269351 0.932501
vt 0.269351 0.944134
vt 0.269350 0.886414
vt 0.373543 0.890702
vt 0.408430 0.912958
vt 0.373543 0.912958
vt 0.280983 0.886414
vt 0.373543 0.810541
vt 0.408430 0.832797
vt 0.373543 0.832797
vt 0.408429 0.890702
vt 0.408430 0.970864
vt 0.373543 0.970864
vt 0.269350 0.874781
vt 0.012839 0.918118
vt 0.253166 0.283663
vt 0.669823 0.247237
vt 0.747774 0.610038
vt 0.178885 0.937681
vt 0.012878 0.868914
vt 0.012878 0.787154
vt 0.037005 0.820101
vt 0.175800 0.709354
vt 0.772515 0.642904
vt 0.747773 0.283668
vt 0.987135 0.247237
vt 0.133525 0.814544
vt 0.747773 0.007876
vt 0.253166 0.222399
vt 0.338891 0.642904
vt 0.228456 0.642904
vt 0.013804 0.247237
vt 0.251629 0.828672
vt 0.280983 0.932523
vt 0.408430 0.810541
vt 0.662147 0.642904
vt 0.330736 0.247237
vt 0.987135 0.642904
vt 0.772785 0.247237
vt 0.253165 0.007876
vt 0.747773 0.222225
s 0
f 31/1/1 29/2/1 1/3/1
f 40/4/2 33/5/2 22/6/2
f 40/7/3 10/8/3 11/9/3
f 8/10/4 11/11/4 13/12/4
f 10/13/5 13/12/5 11/11/5
f 10/14/6 9/15/6 12/16/6
f 5/17/4 14/18/4 4/19/4
f 4/20/7 17/21/7 7/22/7
f 7/23/2 16/24/2 6/25/2
f 6/26/5 15/27/5 5/28/5
f 14/18/3 15/27/3 17/21/3
f 16/24/3 17/21/3 15/27/3
f 40/7/3 11/9/3 38/29/3
f 8/30/3 38/29/3 11/9/3
f 25/31/3 26/32/3 28/33/3
f 7/34/3 28/35/3 4/36/3
f 24/37/3 3/38/3 23/39/3
f 24/40/3 6/41/3 40/7/3
f 5/42/3 4/36/3 26/43/3
f 7/34/3 24/40/3 23/44/3
f 10/8/3 40/7/3 9/45/3
f 40/7/3 6/41/3 9/45/3
f 38/29/3 8/30/3 5/42/3
f 9/45/3 5/42/3 8/30/3
f 5/42/3 9/45/3 6/41/3
f 9/15/6 19/46/6 12/16/6
f 12/16/6 19/46/6 20/47/6
f 9/15/7 8/10/7 18/48/7
f 20/49/2 60/50/2 12/51/2
f 21/52/3 19/46/3 18/48/3
f 13/53/4 63/54/4 21/55/4
f 21/55/3 62/56/3 20/49/3
f 12/51/1 61/57/1 13/58/1
f 19/46/7 9/15/7 18/48/7
f 18/48/4 8/10/4 13/12/4
f 18/48/4 13/12/4 21/59/4
f 6/41/3 24/40/3 7/34/3
f 23/39/7 3/38/7 22/60/7
f 3/38/2 24/37/2 22/60/2
f 28/35/3 26/43/3 4/36/3
f 23/44/3 28/35/3 7/34/3
f 26/43/3 38/29/3 5/42/3
f 32/61/7 31/62/7 27/63/7
f 30/64/7 31/1/7 1/3/7
f 32/65/2 33/66/2 2/67/2
f 26/32/4 25/31/4 27/68/4
f 28/33/7 27/68/7 25/31/7
f 26/69/4 30/70/4 39/71/4
f 29/2/4 30/64/4 1/3/4
f 33/66/1 34/72/1 2/67/1
f 34/72/7 32/65/7 2/67/7
f 39/73/1 31/62/1 33/74/1
f 73/1/1 35/3/1 71/2/1
f 64/6/2 75/5/2 40/4/2
f 40/7/3 49/9/3 48/8/3
f 46/10/4 51/12/4 49/11/4
f 51/12/7 48/13/7 49/11/7
f 48/14/8 50/16/8 47/15/8
f 52/18/4 43/17/4 42/19/4
f 55/21/5 42/20/5 45/22/5
f 54/24/2 45/23/2 44/25/2
f 53/27/7 44/26/7 43/28/7
f 52/18/3 55/21/3 53/27/3
f 54/24/3 53/27/3 55/21/3
f 40/7/3 38/29/3 49/9/3
f 46/30/3 49/9/3 38/29/3
f 67/31/3 70/33/3 68/32/3
f 45/34/3 42/36/3 70/35/3
f 66/37/3 65/39/3 37/38/3
f 66/40/3 40/7/3 44/41/3
f 43/42/3 68/43/3 42/36/3
f 45/34/3 65/44/3 66/40/3
f 48/8/3 47/45/3 40/7/3
f 40/7/3 47/45/3 44/41/3
f 38/29/3 43/42/3 46/30/3
f 47/45/3 46/30/3 43/42/3
f 43/42/3 44/41/3 47/45/3
f 47/15/8 50/16/8 57/46/8
f 50/16/8 58/47/8 57/46/8
f 47/15/5 56/48/5 46/10/5
f 60/50/2 58/49/2 50/51/2
f 57/46/3 59/52/3 56/48/3
f 63/54/4 51/53/4 59/55/4
f 62/56/3 59/55/3 58/49/3
f 61/57/1 50/51/1 51/58/1
f 57/46/5 56/48/5 47/15/5
f 56/48/4 51/12/4 46/10/4
f 56/48/4 59/59/4 51/12/4
f 44/41/3 45/34/3 66/40/3
f 65/39/5 64/60/5 37/38/5
f 37/38/2 64/60/2 66/37/2
f 70/35/3 42/36/3 68/43/3
f 65/44/3 45/34/3 70/35/3
f 68/43/3 43/42/3 38/29/3
f 73/62/5 74/61/5 65/75/5
f 72/64/5 35/3/5 73/1/5
f 74/65/2 36/67/2 75/66/2
f 68/32/4 69/68/4 67/31/4
f 70/33/5 67/31/5 69/68/5
f 39/71/4 72/70/4 68/69/4
f 71/2/4 35/3/4 72/64/4
f 75/66/1 36/67/1 76/72/1
f 76/72/5 36/67/5 74/65/5
f 75/74/1 73/62/1 39/73/1
f 22/6/2 24/76/2 40/4/2
f 40/4/2 41/77/2 33/5/2
f 33/5/2 32/61/2 22/6/2
f 10/13/5 12/78/5 13/12/5
f 5/17/4 15/27/4 14/18/4
f 4/20/7 14/18/7 17/21/7
f 7/23/2 17/21/2 16/24/2
f 6/26/5 16/24/5 15/27/5
f 20/49/2 62/56/2 60/50/2
f 21/52/3 20/79/3 19/46/3
f 13/53/4 61/80/4 63/54/4
f 21/55/3 63/54/3 62/56/3
f 12/51/1 60/50/1 61/57/1
f 27/63/7 28/81/7 23/75/7
f 23/75/7 22/6/7 32/61/7
f 32/61/7 34/82/7 31/62/7
f 31/62/7 30/70/7 27/63/7
f 27/63/7 23/75/7 32/61/7
f 39/71/4 38/83/4 26/69/4
f 26/69/4 27/63/4 30/70/4
f 30/70/4 29/84/4 39/71/4
f 33/74/1 41/85/1 39/73/1
f 39/73/1 29/86/1 31/62/1
f 31/62/1 34/82/1 33/74/1
f 40/4/2 66/76/2 64/6/2
f 64/6/2 74/61/2 75/5/2
f 75/5/2 41/77/2 40/4/2
f 51/12/7 50/78/7 48/13/7
f 52/18/4 53/27/4 43/17/4
f 55/21/5 52/18/5 42/20/5
f 54/24/2 55/21/2 45/23/2
f 53/27/7 54/24/7 44/26/7
f 60/50/2 62/56/2 58/49/2
f 57/46/3 58/79/3 59/52/3
f 63/54/4 61/80/4 51/53/4
f 62/56/3 63/54/3 59/55/3
f 61/57/1 60/50/1 50/51/1
f 65/75/5 70/81/5 69/63/5
f 69/63/5 72/70/5 73/62/5
f 73/62/5 76/82/5 74/61/5
f 74/61/5 64/6/5 65/75/5
f 65/75/5 69/63/5 73/62/5
f 68/69/4 38/83/4 39/71/4
f 39/71/4 71/84/4 72/70/4
f 72/70/4 69/63/4 68/69/4
f 39/73/1 41/85/1 75/74/1
f 75/74/1 76/82/1 73/62/1
f 73/62/1 71/86/1 39/73/1
